# xmcd
#
# Track frame offsets:
#	150
#	19266
#	41411
#	60232
#	79662
#	97405
#	116803
#	136084
#
# Disc length: 1881 seconds
#
# Revision: 2
# Processed by: cddbd v1.5.1PL0 Copyright (c) Steve Scherf et al.
# Submitted via: audiograbber 1.83.01
#
DISCID=63075708
DTITLE=Maurice Strong - Glad I Found U
DYEAR=2003
DGENRE=R&B
TTITLE0=Glad I Found U
TTITLE1=Happy Elated
TTITLE2=Hold On
TTITLE3=Im Sorry
TTITLE4=Infatuation
TTITLE5=Special Lady (Instrumental)
TTITLE6=When U Need Someone (Steppers) 
TTITLE7=Glad I Found U (Reprise)
EXTD=Maurice Strong: Lead Vocals/Keybords and all Music\nExcept\nTony Bowen: Le
EXTD=ad Guitar 'Hold On'\nSheila Stroud: Background  'Im Sorry'\nJerry Soto: Le
EXTD=ad Guitar/Engineer 'Infatuation'
EXTT0=
EXTT1=
EXTT2=
EXTT3=
EXTT4=
EXTT5=
EXTT6=
EXTT7=
PLAYORDER=
